<svg width="392" height="94" viewBox="0 0 392 94" fill="none" xmlns="http://www.w3.org/2000/svg">
<path d="M55.764 5.672L51.54 16.68C49.1507 16.3387 46.6333 16.168 43.988 16.168C38.0147 16.168 32.8093 17.2347 28.372 19.368C23.9347 21.416 20.564 24.1467 18.26 27.56C13.908 34.3013 11.732 41.6827 11.732 49.704C11.732 60.2 13.3533 68.2213 16.596 73.768C19.8387 79.2293 23.7213 81.96 28.244 81.96C34.0467 81.96 38.9107 79.656 42.836 75.048C46.7613 70.44 50.0893 63.3573 52.82 53.8C52.9907 53.1173 53.2893 52.776 53.716 52.776C54.9107 52.776 56.2333 53.3733 57.684 54.568C55.9773 66.2587 52.052 75.6027 45.908 82.6C39.8493 89.5973 33.0227 93.096 25.428 93.096C17.9187 93.096 11.86 89.768 7.252 83.112C2.644 76.456 0.34 67.6667 0.34 56.744C0.34 47.3573 2.772 38.568 7.636 30.376C10.2813 25.8533 13.5667 21.7573 17.492 18.088C21.4173 14.4187 26.4947 11.176 32.724 8.35999C38.9533 5.54399 45.908 3.53866 53.588 2.34399L55.764 5.672ZM99.576 30.376L109.944 25.896L113.016 27.688C110.2 35.9653 108.792 45.5227 108.792 56.36C108.792 60.968 109.176 67.368 109.944 75.56C110.712 83.752 111.437 89.2987 112.12 92.2C112.12 92.456 111.48 92.584 110.2 92.584C108.92 92.584 107.683 91.9867 106.488 90.792C103.757 84.4773 101.581 75.176 99.96 62.888C96.376 71.4213 92.0667 78.376 87.032 83.752C82.0827 89.128 77.6027 91.816 73.592 91.816C65.912 91.816 62.072 86.9947 62.072 77.352C62.072 71.8053 63.1813 66.472 65.4 61.352C67.6187 56.232 70.6053 51.752 74.36 47.912C81.8693 40.3173 90.2747 34.472 99.576 30.376ZM80.504 76.456C83.2347 76.456 86.264 74.28 89.592 69.928C93.0053 65.4907 96.0347 59.2613 98.68 51.24C98.5947 50.0453 98.552 47.7413 98.552 44.328C98.552 40.9147 98.5947 38.3973 98.68 36.776C91.3413 40.9573 85.4107 45.4373 80.888 50.216C76.3653 54.9093 74.104 60.456 74.104 66.856C74.104 73.256 76.2373 76.456 80.504 76.456ZM164.309 29.608L161.237 44.328C160.128 43.9867 158.634 43.816 156.757 43.816C154.88 43.816 153.088 44.4133 151.381 45.608C149.674 46.8027 148.096 48.8507 146.645 51.752C145.194 54.6533 143.957 57.6827 142.933 60.84C141.909 63.9973 140.885 67.368 139.861 70.952C138.837 74.536 137.984 77.5227 137.301 79.912C136.704 82.216 135.466 85.8853 133.589 90.92C132.48 92.2 130.901 92.84 128.853 92.84C128.17 92.84 127.829 92.6693 127.829 92.328C130.048 81.4907 131.157 70.7387 131.157 60.072C131.157 49.32 129.834 38.9947 127.189 29.096L130.261 26.92L140.629 32.424C141.226 38.568 141.525 43.9867 141.525 48.68V50.472C146.816 38.0987 153.514 30.3333 161.621 27.176L164.309 29.608ZM208.098 49.576L203.874 59.56C198.242 60.4987 192.397 60.968 186.338 60.968C180.365 60.968 174.477 60.2427 168.674 58.792C168.077 58.4507 167.479 57.4693 166.882 55.848C166.285 54.2267 165.901 52.904 165.73 51.88L166.242 51.112C170.594 51.7947 175.287 52.136 180.322 52.136C189.453 52.136 198.242 50.5147 206.69 47.272L208.098 49.576ZM221.841 58.92C220.39 57.5547 219.665 55.848 219.665 53.8C219.665 53.1173 219.793 52.776 220.049 52.776C221.841 53.1173 224.486 53.288 227.985 53.288H230.289C229.777 31.3573 226.406 16.7227 220.177 9.384L226.193 0.807999C232.849 5.07466 241.98 9.59733 253.585 14.376C257.34 15.912 260.924 17.6187 264.337 19.496C271.249 23.336 274.705 28.3707 274.705 34.6C274.705 38.3547 273.468 41.9813 270.993 45.48C268.604 48.9787 264.721 51.88 259.345 54.184C266.684 70.3973 273.638 82.8133 280.209 91.432V91.56C280.209 92.4987 278.801 92.968 275.985 92.968C275.302 92.968 274.79 92.9253 274.449 92.84C268.561 87.0373 260.369 75.1333 249.873 57.128C246.716 57.8107 242.876 58.3653 238.353 58.792C238.012 64.2533 236.817 75.1333 234.769 91.432C233.489 92.712 232.124 93.352 230.673 93.352C229.308 93.352 228.625 93.224 228.625 92.968C229.82 81.6187 230.417 70.3973 230.417 59.304V59.048H229.777C226.193 59.048 223.548 59.0053 221.841 58.92ZM236.817 15.144C238.268 23.2507 238.993 30.5893 238.993 37.16C238.993 43.7307 238.865 48.8933 238.609 52.648C246.204 51.624 251.964 49.576 255.889 46.504C259.814 43.3467 261.777 39.7627 261.777 35.752C261.777 32.168 260.582 29.224 258.193 26.92C256.913 25.64 255.718 24.5733 254.609 23.72C253.585 22.8667 251.836 21.8427 249.361 20.648C246.886 19.4533 244.966 18.6 243.601 18.088C242.321 17.4907 240.06 16.5093 236.817 15.144ZM329.018 41.896C328.079 45.8213 326.202 49.3627 323.386 52.52C320.57 55.6773 317.37 58.1947 313.786 60.072C307.215 63.4853 301.455 65.6613 296.506 66.6C296.847 70.8667 297.957 74.024 299.834 76.072C301.711 78.12 303.973 79.144 306.618 79.144C314.127 79.144 320.911 72.8293 326.97 60.2C327.055 59.688 327.482 59.432 328.25 59.432C329.018 59.432 330.17 60.0293 331.706 61.224C328.037 70.0987 323.514 77.4373 318.138 83.24C312.847 88.9573 307.557 91.816 302.266 91.816C296.975 91.816 292.837 89.896 289.85 86.056C286.949 82.216 285.498 77.0533 285.498 70.568C285.498 61.608 287.93 53.3307 292.794 45.736C295.439 41.64 299.151 38.056 303.93 34.984C308.794 31.8267 314.554 29.48 321.21 27.944C326.415 29.736 329.018 34.3867 329.018 41.896ZM314.042 38.056C310.458 38.056 306.746 40.1467 302.906 44.328C299.066 48.424 296.933 54.1413 296.506 61.48C303.589 59.6027 309.007 56.872 312.762 53.288C316.602 49.6187 318.522 46.0347 318.522 42.536C318.522 41.256 318.138 40.1893 317.37 39.336C316.602 38.4827 315.493 38.056 314.042 38.056ZM343.966 90.152C346.014 79.4 347.038 69.6293 347.038 60.84C347.038 52.0507 346.697 45.864 346.014 42.28C345.417 38.6107 344.734 35.5387 343.966 33.064C343.283 30.5893 342.899 29.1813 342.814 28.84L345.886 26.92L356.254 31.912C356.937 36.8613 357.278 41 357.278 44.328C357.278 47.656 357.235 50.088 357.15 51.624C360.734 44.6267 364.702 39.0373 369.054 34.856C373.406 30.6747 377.417 28.584 381.086 28.584C388.169 28.584 391.71 33.4053 391.71 43.048C391.71 50.5573 390.985 59.56 389.534 70.056C388.083 80.4667 387.187 87.1227 386.846 90.024C385.822 91.2187 383.945 91.816 381.214 91.816C380.617 91.816 380.318 91.688 380.318 91.432C381.598 80.5093 382.238 71.3787 382.238 64.04C382.238 50.6427 379.721 43.944 374.686 43.944C370.846 43.944 366.878 47.0587 362.782 53.288C358.771 59.5173 355.486 68.3067 352.926 79.656H352.67C351.475 83.752 350.494 86.824 349.726 88.872C348.531 90.0667 347.251 90.664 345.886 90.664C344.606 90.664 343.966 90.4933 343.966 90.152Z" fill="#040000"/>
</svg>
