<svg width="567" height="198" viewBox="0 0 567 198" fill="none" xmlns="http://www.w3.org/2000/svg">
<rect width="567" height="198" fill="#1E1E1E"/>
<g style="mix-blend-mode:exclusion" clip-path="url(#clip0_0_1)">
<path d="M54.2306 137.128C51.0224 137.128 48.2371 138.893 46.7246 141.487C45.9748 142.773 45.5127 144.255 45.5127 145.846C45.5127 150.649 49.4227 154.564 54.2306 154.564C59.0385 154.564 62.9485 150.649 62.9485 145.846C62.9485 144.255 62.4908 142.773 61.7367 141.487C60.2241 138.893 57.4432 137.128 54.2306 137.128Z" fill="white"/>
<path d="M115.256 137.128C112.048 137.128 109.262 138.893 107.75 141.487C107 142.773 106.538 144.255 106.538 145.846C106.538 150.649 110.448 154.564 115.256 154.564C120.064 154.564 123.974 150.649 123.974 145.846C123.974 144.255 123.516 142.773 122.762 141.487C121.249 138.893 118.469 137.128 115.256 137.128Z" fill="white"/>
<path d="M141.41 128.41V124.051L115.256 116.576L84.7433 97.8974H36.7948V102.256H62.9485V106.615H15V110.974H67.3075V115.333H23.7179V119.692H45.5127V124.051H36.7948V128.41H19.359V132.769H41.1537V137.128H36.7948V141.487H23.7179V145.846H41.1537C41.1537 144.312 41.4675 142.856 41.9557 141.487C43.7604 136.422 48.5465 132.769 54.2306 132.769C59.919 132.769 64.7009 136.422 66.5055 141.487C66.9893 142.856 67.3075 144.312 67.3075 145.846H102.179C102.179 144.312 102.493 142.856 102.981 141.487C104.786 136.422 109.572 132.769 115.256 132.769C120.944 132.769 125.726 136.422 127.531 141.487C128.015 142.856 128.333 144.312 128.333 145.846H141.41V141.487H145.769V128.41H141.41Z" fill="white"/>
<path d="M241.415 159.49C238.54 160.653 235.785 161.423 233.15 161.8C230.514 162.176 227.588 162.365 224.371 162.365C218.553 162.365 213.453 161.44 209.072 159.592C204.691 157.744 201.046 155.16 198.137 151.84C195.228 148.52 193.038 144.567 191.566 139.981C190.094 135.395 189.358 130.364 189.358 124.888C189.358 119.411 190.111 114.346 191.617 109.692C193.123 105.037 195.331 101.032 198.24 97.6784C201.149 94.3244 204.76 91.7062 209.072 89.8236C213.385 87.941 218.313 87 223.858 87C227.075 87 229.984 87.308 232.585 87.9241C235.186 88.5401 237.719 89.3957 240.183 90.491L235.973 104.147C234.604 103.531 233.081 102.983 231.404 102.504C229.727 102.025 227.725 101.785 225.398 101.785C213.213 101.785 207.121 109.486 207.121 124.888C207.121 132.623 208.696 138.338 211.845 142.035C214.993 145.731 219.853 147.579 226.425 147.579C228.615 147.579 230.549 147.425 232.226 147.117C233.903 146.809 235.563 146.347 237.206 145.731L241.415 159.49ZM275.401 137.722C274.717 137.585 273.998 137.5 273.245 137.465C272.492 137.431 271.842 137.414 271.294 137.414C268.419 137.414 266.092 137.859 264.312 138.749C262.532 139.639 261.643 141.179 261.643 143.369C261.643 144.738 261.968 145.816 262.618 146.604C263.268 147.391 264.073 147.973 265.031 148.349C265.989 148.726 266.999 148.948 268.06 149.017C269.121 149.085 270.028 149.119 270.781 149.119C272.15 149.119 273.69 148.948 275.401 148.606V137.722ZM270.062 126.428C270.61 126.428 271.345 126.445 272.269 126.479C273.193 126.514 274.237 126.565 275.401 126.633C275.332 123.964 274.391 122.235 272.577 121.448C270.763 120.661 268.419 120.267 265.544 120.267C263.97 120.267 262.156 120.456 260.102 120.832C258.049 121.209 255.824 121.773 253.428 122.526L251.785 116.879C251.58 116.126 251.289 115.031 250.912 113.593C250.536 112.156 250.279 111.027 250.142 110.205C253.565 109.041 256.799 108.203 259.845 107.69C262.891 107.176 265.647 106.919 268.111 106.919C275.366 106.919 280.979 108.648 284.95 112.105C288.92 115.561 290.905 121.089 290.905 128.687V158.771C288.235 159.524 285.155 160.26 281.664 160.979C278.173 161.697 274.408 162.057 270.37 162.057C266.81 162.057 263.576 161.749 260.667 161.133C257.757 160.517 255.259 159.49 253.171 158.052C251.083 156.615 249.475 154.732 248.346 152.405C247.216 150.078 246.651 147.237 246.651 143.883C246.651 140.529 247.353 137.722 248.756 135.464C250.16 133.205 251.974 131.408 254.198 130.073C256.423 128.738 258.921 127.797 261.694 127.249C264.466 126.702 267.255 126.428 270.062 126.428ZM319.347 109.486C320.168 108.939 321.315 108.408 322.786 107.895C324.258 107.381 325.918 107.125 327.766 107.125C329.34 107.125 330.624 107.193 331.616 107.33C332.609 107.467 333.105 107.501 333.105 107.433V121.089C331.531 120.952 329.991 120.918 328.485 120.986C327.184 121.123 325.832 121.345 324.429 121.653C323.026 121.961 321.742 122.526 320.579 123.348C319.21 124.306 318.234 125.606 317.652 127.249C317.07 128.892 316.78 131.151 316.78 134.026V161.338H301.378V120.575H293.061L299.633 107.535H316.78V111.54C317.122 111.266 317.43 110.992 317.704 110.718C317.977 110.513 318.251 110.29 318.525 110.051C318.799 109.811 319.073 109.623 319.347 109.486ZM343.168 87.8215L360.007 87.8214V115.544H381.877V87.8214H398.716V161.235H381.877V129.919C381.466 129.987 381.089 130.056 380.747 130.124L379.515 130.33H362.265L360.007 129.919V161.235H343.168V87.8215ZM410.421 107.638L426.028 107.638V135.566C426.028 137.962 426.233 139.964 426.644 141.572C427.054 143.181 427.67 144.447 428.492 145.371C429.313 146.296 430.323 146.946 431.521 147.322C432.719 147.699 434.139 147.887 435.782 147.887C437.767 147.887 439.547 147.784 441.121 147.579L440.916 145.731V107.638H456.522V158.36C453.99 159.25 450.961 160.037 447.436 160.722C443.91 161.406 440.3 161.748 436.603 161.748C433.112 161.748 429.775 161.475 426.592 160.927C423.409 160.38 420.62 159.216 418.224 157.436C415.828 155.656 413.929 153.072 412.526 149.684C411.122 146.296 410.421 141.727 410.421 135.977V107.638ZM484.656 89.1563L484.656 106.919L484.142 109.076C484.142 109.007 484.827 108.785 486.196 108.408C487.565 108.032 489.447 107.843 491.843 107.843C495.403 107.843 498.688 108.374 501.7 109.435C504.712 110.496 507.296 112.121 509.452 114.312C511.608 116.502 513.285 119.292 514.483 122.68C515.681 126.068 516.28 130.124 516.28 134.847C516.28 138.543 515.852 142.018 514.997 145.269C514.141 148.52 512.721 151.378 510.736 153.842C508.751 156.307 506.149 158.257 502.932 159.695C499.715 161.132 495.745 161.851 491.022 161.851H488.301L483.475 161.646L477.16 161.03L469.973 159.798V101.785H461.451L468.022 89.2588L484.656 89.1563ZM489.584 148.093C491.227 148.093 492.785 147.888 494.256 147.477C495.728 147.066 496.994 146.347 498.055 145.321C499.116 144.294 499.972 142.925 500.622 141.214C501.272 139.502 501.597 137.38 501.597 134.848C501.597 132.315 501.289 130.142 500.673 128.328C500.057 126.514 499.236 125.042 498.209 123.913C497.182 122.783 495.967 121.962 494.564 121.448C493.161 120.935 491.672 120.678 490.098 120.678C489.276 120.678 488.318 120.747 487.223 120.884C486.127 121.021 485.272 121.157 484.656 121.294V147.682C485.409 147.819 486.179 147.922 486.966 147.99C487.753 148.059 488.626 148.093 489.584 148.093Z" fill="white"/>
</g>
<defs>
<clipPath id="clip0_0_1">
<rect width="501.28" height="75.3645" fill="white" transform="translate(15 87)"/>
</clipPath>
</defs>
</svg>
