<svg width="565" height="163" viewBox="0 0 565 163" fill="none" xmlns="http://www.w3.org/2000/svg">
<rect width="565" height="163" fill="#1E1E1E"/>
<rect width="565" height="163" fill="#2B59FF"/>
<g style="mix-blend-mode:screen" clip-path="url(#clip0_0_1)">
<path d="M71.2306 94.128C68.0224 94.128 65.2371 95.8934 63.7246 98.4869C62.9748 99.7728 62.5127 101.255 62.5127 102.846C62.5127 107.649 66.4227 111.564 71.2306 111.564C76.0385 111.564 79.9485 107.649 79.9485 102.846C79.9485 101.255 79.4908 99.7728 78.7367 98.4869C77.2241 95.8934 74.4432 94.128 71.2306 94.128Z" fill="white"/>
<path d="M132.256 94.128C129.048 94.128 126.262 95.8934 124.75 98.4869C124 99.7728 123.538 101.255 123.538 102.846C123.538 107.649 127.448 111.564 132.256 111.564C137.064 111.564 140.974 107.649 140.974 102.846C140.974 101.255 140.516 99.7728 139.762 98.4869C138.249 95.8934 135.469 94.128 132.256 94.128Z" fill="white"/>
<path d="M158.41 85.4101V81.0511L132.256 73.5755L101.743 54.8974H53.7948V59.2564H79.9485V63.6153H32V67.9743H84.3075V72.3332H40.7179V76.6922H62.5127V81.0511H53.7948V85.4101H36.359V89.7691H58.1537V94.128H53.7948V98.487H40.7179V102.846H58.1537C58.1537 101.312 58.4675 99.8557 58.9557 98.487C60.7604 93.4219 65.5465 89.7691 71.2306 89.7691C76.919 89.7691 81.7009 93.4219 83.5055 98.487C83.9893 99.8557 84.3075 101.312 84.3075 102.846H119.179C119.179 101.312 119.493 99.8557 119.981 98.487C121.786 93.4219 126.572 89.7691 132.256 89.7691C137.944 89.7691 142.726 93.4219 144.531 98.487C145.015 99.8557 145.333 101.312 145.333 102.846H158.41V98.487H162.769V85.4101H158.41Z" fill="white"/>
<path d="M258.415 116.49C255.54 117.653 252.785 118.423 250.15 118.8C247.514 119.176 244.588 119.365 241.371 119.365C235.553 119.365 230.453 118.44 226.072 116.592C221.691 114.744 218.046 112.16 215.137 108.84C212.228 105.52 210.038 101.567 208.566 96.9811C207.094 92.395 206.358 87.3639 206.358 81.8876C206.358 76.4114 207.111 71.3458 208.617 66.6915C210.123 62.0372 212.331 58.0323 215.24 54.6784C218.149 51.3244 221.76 48.7062 226.072 46.8236C230.385 44.941 235.313 44 240.858 44C244.075 44 246.984 44.308 249.585 44.9241C252.186 45.5401 254.719 46.3957 257.183 47.491L252.973 61.147C251.604 60.5309 250.081 59.9833 248.404 59.5042C246.727 59.025 244.725 58.7854 242.398 58.7854C230.213 58.7854 224.121 66.4862 224.121 81.8876C224.121 89.6228 225.696 95.3382 228.845 99.0346C231.993 102.731 236.853 104.579 243.425 104.579C245.615 104.579 247.549 104.425 249.226 104.117C250.903 103.809 252.563 103.347 254.206 102.731L258.415 116.49ZM292.401 94.7223C291.717 94.5854 290.998 94.4996 290.245 94.4654C289.492 94.4312 288.842 94.4141 288.294 94.4141C285.419 94.4141 283.092 94.859 281.312 95.7489C279.532 96.6388 278.643 98.1789 278.643 100.369C278.643 101.738 278.968 102.816 279.618 103.604C280.268 104.391 281.073 104.973 282.031 105.349C282.989 105.726 283.999 105.948 285.06 106.017C286.121 106.085 287.028 106.119 287.781 106.119C289.15 106.119 290.69 105.948 292.401 105.606V94.7223ZM287.062 83.4279C287.61 83.4279 288.345 83.4451 289.269 83.4793C290.193 83.5135 291.237 83.5648 292.401 83.6333C292.332 80.9637 291.391 79.2354 289.577 78.4482C287.763 77.6609 285.419 77.2674 282.544 77.2674C280.97 77.2674 279.156 77.4556 277.102 77.8321C275.049 78.2086 272.824 78.7733 270.428 79.5263L268.785 73.8791C268.58 73.1261 268.289 72.0309 267.912 70.5934C267.536 69.1559 267.279 68.0265 267.142 67.2051C270.565 66.0415 273.799 65.2029 276.845 64.6895C279.891 64.1761 282.647 63.9194 285.111 63.9194C292.366 63.9194 297.979 65.6478 301.95 69.1046C305.92 72.5614 307.905 78.0888 307.905 85.6869V115.771C305.235 116.524 302.155 117.26 298.664 117.979C295.173 118.697 291.408 119.057 287.37 119.057C283.81 119.057 280.576 118.749 277.667 118.133C274.757 117.517 272.259 116.49 270.171 115.052C268.083 113.615 266.475 111.732 265.346 109.405C264.216 107.078 263.651 104.237 263.651 100.883C263.651 97.5291 264.353 94.7224 265.756 92.4635C267.16 90.2046 268.974 88.4078 271.198 87.073C273.423 85.7382 275.921 84.797 278.694 84.2494C281.466 83.7018 284.255 83.4279 287.062 83.4279ZM336.347 66.4863C337.168 65.9387 338.315 65.4081 339.786 64.8948C341.258 64.3814 342.918 64.1247 344.766 64.1247C346.34 64.1247 347.624 64.1932 348.616 64.33C349.609 64.4669 350.105 64.5011 350.105 64.4326V78.0886C348.531 77.9517 346.991 77.9175 345.485 77.986C344.184 78.1229 342.832 78.3454 341.429 78.6534C340.026 78.9614 338.742 79.5262 337.579 80.3476C336.21 81.3059 335.234 82.6065 334.652 84.2493C334.07 85.8921 333.78 88.151 333.78 91.0259V118.338H318.378V77.5753H310.061L316.633 64.5354H333.78V68.5398C334.122 68.2659 334.43 67.9921 334.704 67.7183C334.977 67.5129 335.251 67.2904 335.525 67.0509C335.799 66.8113 336.073 66.6231 336.347 66.4863ZM360.168 44.8215L377.007 44.8214V72.5441H398.877V44.8214H415.716V118.235H398.877V86.9188C398.466 86.9873 398.089 87.0557 397.747 87.1242L396.515 87.3296H379.265L377.007 86.9189V118.235H360.168V44.8215ZM427.421 64.6381L443.028 64.6379V92.5659C443.028 94.9616 443.233 96.9638 443.644 98.5725C444.054 100.181 444.67 101.447 445.492 102.371C446.313 103.296 447.323 103.946 448.521 104.322C449.719 104.699 451.139 104.887 452.782 104.887C454.767 104.887 456.547 104.784 458.121 104.579L457.916 102.731V64.6379H473.522V115.36C470.99 116.25 467.961 117.037 464.436 117.722C460.91 118.406 457.3 118.748 453.603 118.748C450.112 118.748 446.775 118.475 443.592 117.927C440.409 117.38 437.62 116.216 435.224 114.436C432.828 112.656 430.929 110.072 429.526 106.684C428.122 103.296 427.421 98.7267 427.421 92.9768V64.6381ZM501.656 46.1563L501.656 63.9193L501.142 66.0755C501.142 66.0071 501.827 65.7846 503.196 65.408C504.565 65.0315 506.447 64.8433 508.843 64.8433C512.403 64.8433 515.688 65.3739 518.7 66.4348C521.712 67.4958 524.296 69.1214 526.452 71.3118C528.608 73.5022 530.285 76.2917 531.483 79.68C532.681 83.0683 533.28 87.124 533.28 91.8471C533.28 95.5435 532.852 99.0175 531.997 102.269C531.141 105.52 529.721 108.378 527.736 110.842C525.751 113.307 523.149 115.257 519.932 116.695C516.715 118.132 512.745 118.851 508.022 118.851H505.301L500.475 118.646L494.16 118.03L486.973 116.798V58.7853H478.451L485.022 46.2588L501.656 46.1563ZM506.584 105.093C508.227 105.093 509.785 104.888 511.256 104.477C512.728 104.066 513.994 103.347 515.055 102.321C516.116 101.294 516.972 99.9249 517.622 98.2136C518.272 96.5023 518.597 94.3803 518.597 91.8477C518.597 89.315 518.289 87.1416 517.673 85.3277C517.057 83.5138 516.236 82.042 515.209 80.9126C514.182 79.7832 512.967 78.9618 511.564 78.4484C510.161 77.935 508.672 77.6783 507.098 77.6783C506.276 77.6783 505.318 77.7468 504.223 77.8837C503.127 78.0205 502.272 78.1574 501.656 78.2943V104.682C502.409 104.819 503.179 104.922 503.966 104.99C504.753 105.059 505.626 105.093 506.584 105.093Z" fill="white"/>
</g>
<defs>
<clipPath id="clip0_0_1">
<rect width="501.28" height="75.3645" fill="white" transform="translate(32 44)"/>
</clipPath>
</defs>
</svg>
